<svg width="80" height="80" viewBox="0 0 80 80" fill="none" xmlns="http://www.w3.org/2000/svg">
<g clip-path="url(#clip0_4127_1889)">
<rect x="2.52637" y="37.0526" width="13.2632" height="13.2632" rx="6.63158" fill="#B8844C"/>
<rect x="16.8418" y="15.7896" width="9.26316" height="9.26316" rx="4.63158" fill="#B8844C"/>
<circle cx="40.0851" cy="39.8802" r="37.724" stroke="#B8844C" stroke-width="4.21053"/>
<circle cx="40.0853" cy="39.8792" r="35.9943" stroke="#B8844C" stroke-width="0.842105"/>
<circle cx="40.0851" cy="39.8802" r="39.6188" stroke="#B8844C" stroke-width="0.421053"/>
<rect x="62.3159" y="21.4736" width="13.2632" height="13.2632" rx="6.63158" fill="#B8844C"/>
<path d="M40.4834 2.88818C40.6224 2.53557 41.1204 2.53173 41.2646 2.88232L65.0742 60.9517L65.0752 60.9565C66.5159 64.7022 68.8096 66.2683 70.7275 66.9077C71.6905 67.2287 72.5652 67.3177 73.1982 67.3267C73.5143 67.3311 73.7702 67.3148 73.9453 67.2983C74.0326 67.2901 74.1006 67.2822 74.1455 67.2759C74.1675 67.2728 74.1845 67.2698 74.1953 67.2681C74.2006 67.2672 74.2056 67.2665 74.208 67.2661H74.21L74.458 67.2212V68.855H48.8584V67.2476L49.083 67.2632H49.0879C49.0917 67.2634 49.098 67.2637 49.1055 67.2642C49.1213 67.2651 49.146 67.2667 49.1768 67.2681C49.2387 67.2708 49.3297 67.2736 49.4443 67.2759C49.675 67.2804 50.0026 67.2802 50.3857 67.2622C51.1548 67.226 52.1406 67.1182 53.0303 66.8335C53.925 66.5471 54.6862 66.094 55.0596 65.397C55.4265 64.7111 55.4506 63.726 54.7363 62.2974L54.7324 62.2896L54.7295 62.2808L46.584 41.9194H27.541C27.5321 41.9402 27.5218 41.9642 27.5107 41.9897C27.4551 42.1189 27.3733 42.3098 27.2695 42.5522C27.0616 43.0378 26.7646 43.7354 26.4082 44.5806C25.6949 46.2723 24.7438 48.5591 23.793 50.936C22.842 53.3134 21.8917 55.7806 21.1797 57.8345C20.8237 58.8613 20.5277 59.7836 20.3213 60.5376C20.1168 61.2847 20.0059 61.8482 20.002 62.1851C20.5716 64.9744 22.9488 66.2521 25.2588 66.8296C26.4118 67.1178 27.5317 67.226 28.3643 67.2622C28.7799 67.2803 29.1237 67.2804 29.3623 67.2759C29.4813 67.2736 29.5749 67.2708 29.6377 67.2681C29.6688 67.2667 29.6932 67.265 29.709 67.2642C29.7165 67.2637 29.7228 67.2634 29.7266 67.2632H29.7314L29.9561 67.2476V68.855H6.1123V67.313L6.2666 67.27H6.26855C6.26984 67.2696 6.27224 67.2687 6.27441 67.2681C6.27939 67.2667 6.28743 67.2649 6.29688 67.2622C6.31657 67.2567 6.34593 67.2476 6.38379 67.2368C6.46062 67.2149 6.57405 67.1822 6.71777 67.1401C7.00608 67.0558 7.41999 66.9329 7.91699 66.7778C8.91176 66.4675 10.2433 66.0293 11.5918 65.519C12.9421 65.0081 14.3038 64.4276 15.3604 63.8315C15.8887 63.5334 16.3344 63.2343 16.6631 62.9438C16.9959 62.6496 17.1864 62.3826 17.2441 62.1519L17.248 62.1392L17.2529 62.1265L40.4834 2.88818ZM27.875 39.9517H46.0195L36.7715 16.5298L27.875 39.9517Z" fill="#B8844C"/>
</g>
<defs>
<clipPath id="clip0_4127_1889">
<rect width="80" height="80" fill="white"/>
</clipPath>
</defs>
</svg>
